<?xml version="1.0" encoding="utf-8" ?>
<svg baseProfile="full" height="83.3047398366034" version="1.1" width="69.28019114769995" xmlns="http://www.w3.org/2000/svg" xmlns:ev="http://www.w3.org/2001/xml-events" xmlns:xlink="http://www.w3.org/1999/xlink"><defs /><rect fill="white" height="83.3047398366034" width="69.28019114769995" x="0" y="0" /><path d="M36.21066174004227,32.00469499453902 m-3.0751875042915344,0.6255293637514114 l-4.437620043754578,3.8273578882217407 -1.5149255096912384,2.329198271036148 l-1.5348929166793823,5.507276654243469 -0.2967241406440735,4.7277191281318665 l0.502672865986824,2.478661835193634 1.4199310541152954,2.712673544883728 l2.6150542497634888,2.638506591320038 3.0731862783432007,1.1292755603790283 l4.0638598799705505,0.3238460049033165 1.7085634171962738,-0.5774973332881927 l2.7040135860443115,-2.2267265617847443 1.6257210075855255,-3.1479141116142273 l0.789356529712677,-4.57779586315155 -0.0464459927752614,-3.9111027121543884 l-1.5870577096939087,-5.060466527938843 -1.3076059520244598,-2.0543272793293 l-1.6682270169258118,-1.7408238351345062 -3.5516175627708435,-1.8335892260074615 l-1.3924360275268555,-0.09707795456051826 m2.8364327549934387,3.551012873649597 l2.061905413866043,-3.335382044315338 3.942365050315857,-6.317744255065918 l0.8174556493759155,-0.28233252465724945 -0.003183959051966667,3.2645586133003235 l-1.0100939869880676,8.442850112915039 -0.5109503120183945,3.8678649067878723 m-12.5732421875,-8.714183568954468 l-1.8124249577522278,-3.894520103931427 -2.64305979013443,-4.659542441368103 l-0.39917975664138794,0.330120213329792 -0.0063041504472494125,2.6191911101341248 l1.950717270374298,13.8651442527771 0.2692217566072941,4.253990054130554 m5.517115592956543,-3.564891219139099 l-0.18155250698328018,0.5276582017540932 0.2100028470158577,0.7875600457191467 l0.46269048005342484,0.07058042101562023 0.058861859142780304,-0.9937986731529236 l-0.5816034600138664,-0.05385626573115587 -0.14891608618199825,0.7629789412021637 l0.5777241662144661,-0.12011013925075531 0.08387746289372444,-0.6687924265861511 l-0.42332958430051804,-0.25454485788941383 0.05653666332364082,1.0822290182113647 l0.24262569844722748,-0.10147837921977043 m4.938409924507141,-1.539255827665329 l-0.3844216838479042,1.6239163279533386 0.585888996720314,-0.1276075281202793 l-0.017611049115657806,-0.8700986951589584 -0.5224563926458359,-0.18642745912075043 l-0.21832836791872978,0.949176475405693 0.29470615088939667,0.35329505801200867 l0.09209715761244297,-0.5982975661754608 -0.4587966576218605,0.16302602365612984 m-2.918374240398407,3.970908224582672 l-0.06795634515583515,3.810875415802002 -0.0743468850851059,0.9514719247817993 l-0.913529098033905,1.0261170566082 -0.9212380647659302,-0.2022518590092659 l-0.30458351597189903,-0.8033587038516998 m2.8193217515945435,-4.362389445304871 l0.25035860016942024,3.628963530063629 0.9394986927509308,1.6976732015609741 l0.9295140951871872,0.31559284776449203 1.0048484057188034,-0.7733061909675598 m-0.9593336284160614,-6.706611514091492 l2.6328718662261963,-1.6398099064826965 3.95025372505188,-1.8674102425575256 m-5.187077522277832,5.860280394554138 l4.516482353210449,0.05982348695397377 1.1800207197666168,0.6080521270632744 m-11.017215251922607,-1.1339021474123 l-3.6301499605178833,-1.33832186460495 -2.7005791664123535,-0.12983966618776321 m6.228283047676086,3.2994839549064636 l-3.0346208810806274,0.6733027100563049 -2.35738605260849,1.2009291350841522 m5.778526067733765,-5.814728736877441 l-1.2968263030052185,-0.4604799672961235 m2.9941684007644653,1.3453789055347443 l0.6812725216150284,-0.39147529751062393 1.147022768855095,-0.6268584728240967 l0.8687974512577057,-0.10497212409973145 m-5.65552830696106,1.1665552109479904 l-0.28966788202524185,0.011791354045271873 -0.49956168979406357,0.43800540268421173 l-0.08369393646717072,1.2393584102392197 0.3980345278978348,0.4072616249322891 l0.932975634932518,-0.32970376312732697 0.446324422955513,-1.089862883090973 l-0.6344840675592422,-0.5576665699481964 -0.593409426510334,0.7841938734054565 l0.09071243926882744,0.8503036201000214 0.5906188115477562,0.27060840278863907 l0.46522583812475204,-1.022813767194748 -0.16357272863388062,-0.7690639793872833 l-0.5921066924929619,-0.14911746606230736 -0.2878294140100479,0.5091387778520584 l0.22644905373454094,1.2117986381053925 " fill="none" stroke="black" stroke-width="1" /></svg>